<svg fill="none" height="24" viewBox="0 0 24 24" width="24" xmlns="http://www.w3.org/2000/svg"><g fill="#2271b1"><path d="m17.1218 1.87023c-1.3645-1.364548-3.6439-1.10448-4.666.53238l-2.70389 4.33028 1.44499 1.44504c.0386-.05063.0754-.10378.1102-.15948l2.8452-4.55654c.3407-.54562 1.1005-.63231 1.5553-.17746l4.9283 4.92829c.4548.45485.3682 1.21463-.1775 1.55532l-4.5565 2.84524c-.0557.0348-.1089.0715-.1595.1101l1.445 1.445 4.3303-2.7039c1.6369-1.0221 1.897-3.30143.5324-4.66598z"/><path d="m3.56525 8.85242c.03625-.5863.28437-1.1666.76358-1.5782l1.44852 1.44852c-.01951.00693-.039.01406-.05849.0214-.0737.02776-.10031.05871-.11338.07767-.01671.02423-.03897.07189-.04404.15402-.01098.1775.06728.43103.26702.63077l8.48524 8.4853c.1998.1997.4533.278.6308.267.0821-.0051.1298-.0273.154-.044.019-.0131.0499-.0397.0777-.1134.0073-.0195.0145-.039.0214-.0585l1.4485 1.4485c-.4116.4792-.9919.7273-1.5782.7636-.7826.0484-1.5871-.2677-2.1684-.849l-3.53553-3.5356-6.68003 6.6801c-.39052.3905-1.02369.3905-1.41421 0-.390524-.3906-.390524-1.0237 0-1.4143l6.68002-6.68-3.5355-3.5355c-.58132-.5813-.89738-1.38578-.849-2.16838z"/><path d="m2.00789 2.00786c-.39053.39052-.39053 1.02369 0 1.41421l18.57831 18.57833c.3905.3905 1.0237.3905 1.4142 0 .3906-.3905.3906-1.0237 0-1.4142l-18.5783-18.57834c-.39052-.39053-1.02369-.39053-1.41421 0z"/></g></svg>
